<?xml version="1.0" encoding="UTF-8" standalone="no"?>
<!-- Created with Inkscape (http://www.inkscape.org/) -->

<svg
   xmlns:dc="http://purl.org/dc/elements/1.1/"
   xmlns:cc="http://creativecommons.org/ns#"
   xmlns:rdf="http://www.w3.org/1999/02/22-rdf-syntax-ns#"
   xmlns:svg="http://www.w3.org/2000/svg"
   xmlns="http://www.w3.org/2000/svg"
   xmlns:sodipodi="http://sodipodi.sourceforge.net/DTD/sodipodi-0.dtd"
   xmlns:inkscape="http://www.inkscape.org/namespaces/inkscape"
   width="744.09448819"
   height="1052.3622047"
   id="svg2"
   version="1.1"
   inkscape:version="0.48.4 r9939"
   sodipodi:docname="skyldav.svg"
   inkscape:export-filename="\\192.168.123.5\zfsdt\workspace\skyldav\examples\usr\share\skyldav\icons\skyldav256.png"
   inkscape:export-xdpi="124.54"
   inkscape:export-ydpi="124.54">
  <defs
     id="defs4" />
  <sodipodi:namedview
     id="base"
     pagecolor="#ffffff"
     bordercolor="#666666"
     borderopacity="1.0"
     inkscape:pageopacity="0.0"
     inkscape:pageshadow="2"
     inkscape:zoom="1.6621621"
     inkscape:cx="124.29194"
     inkscape:cy="-23.593294"
     inkscape:document-units="px"
     inkscape:current-layer="layer1"
     showgrid="false"
     inkscape:window-width="1600"
     inkscape:window-height="835"
     inkscape:window-x="-4"
     inkscape:window-y="-4"
     inkscape:window-maximized="1" />
  <metadata
     id="metadata7">
    <rdf:RDF>
      <cc:Work
         rdf:about="">
        <dc:format>image/svg+xml</dc:format>
        <dc:type
           rdf:resource="http://purl.org/dc/dcmitype/StillImage" />
        <dc:title></dc:title>
      </cc:Work>
    </rdf:RDF>
  </metadata>
  <g
     inkscape:label="Layer 1"
     inkscape:groupmode="layer"
     id="layer1">
    <path
       sodipodi:type="arc"
       style="fill:#ffffff;fill-opacity:1;stroke:none"
       id="path2991"
       sodipodi:cx="287.14285"
       sodipodi:cy="389.50504"
       sodipodi:rx="110"
       sodipodi:ry="94.285713"
       d="m 397.14285,389.50504 a 110,94.285713 0 1 1 -220,0 110,94.285713 0 1 1 220,0 z"
       transform="matrix(0.32141217,-0.32141217,0.37498088,0.37498088,-188.34815,948.59645)" />
    <path
       sodipodi:type="arc"
       style="fill:#0066ff;fill-opacity:1;stroke:none"
       id="path3761"
       sodipodi:cx="175.44586"
       sodipodi:cy="941.64978"
       sodipodi:rx="36.299145"
       sodipodi:ry="39.32407"
       d="m 211.74501,941.64978 a 36.299145,39.32407 0 1 1 -72.59829,0 36.299145,39.32407 0 1 1 72.59829,0 z"
       transform="matrix(0.77919936,-0.77919936,0.71926103,0.71926103,-771.07037,454.70644)" />
    <path
       sodipodi:type="arc"
       style="fill:#ffffff;fill-opacity:1;stroke:none"
       id="path2991-7"
       sodipodi:cx="287.14285"
       sodipodi:cy="389.50504"
       sodipodi:rx="110"
       sodipodi:ry="94.285713"
       d="m 397.14285,389.50504 a 110,94.285713 0 1 1 -220,0 110,94.285713 0 1 1 220,0 z"
       transform="matrix(0.32141217,0.32141217,-0.37498088,0.37498088,188.76573,764.01403)" />
    <path
       sodipodi:type="arc"
       style="fill:#0066ff;fill-opacity:1;stroke:none"
       id="path3761-4"
       sodipodi:cx="175.44586"
       sodipodi:cy="941.64978"
       sodipodi:rx="36.299145"
       sodipodi:ry="39.32407"
       d="m 211.74501,941.64978 a 36.299145,39.32407 0 1 1 -72.59829,0 36.299145,39.32407 0 1 1 72.59829,0 z"
       transform="matrix(0.77919936,0.77919936,-0.71926103,0.71926103,682.65574,181.29181)" />
    <path
       sodipodi:type="arc"
       style="fill:#ffffff;fill-opacity:1;stroke:none"
       id="path2991-4"
       sodipodi:cx="287.14285"
       sodipodi:cy="389.50504"
       sodipodi:rx="110"
       sodipodi:ry="94.285713"
       d="m 397.14285,389.50504 a 110,94.285713 0 1 1 -220,0 110,94.285713 0 1 1 220,0 z"
       transform="matrix(-0.32141217,0.32141217,-0.37498088,-0.37498088,373.34815,1141.1279)" />
    <path
       sodipodi:type="arc"
       style="fill:#0066ff;fill-opacity:1;stroke:none"
       id="path3761-8"
       sodipodi:cx="175.44586"
       sodipodi:cy="941.64978"
       sodipodi:rx="36.299145"
       sodipodi:ry="39.32407"
       d="m 211.74501,941.64978 a 36.299145,39.32407 0 1 1 -72.59829,0 36.299145,39.32407 0 1 1 72.59829,0 z"
       transform="matrix(-0.77919936,0.77919936,-0.71926103,-0.71926103,956.07037,1635.0179)" />
    <path
       sodipodi:type="arc"
       style="fill:#ffffff;fill-opacity:1;stroke:none"
       id="path2991-7-2"
       sodipodi:cx="287.14285"
       sodipodi:cy="389.50504"
       sodipodi:rx="110"
       sodipodi:ry="94.285713"
       d="m 397.14285,389.50504 a 110,94.285713 0 1 1 -220,0 110,94.285713 0 1 1 220,0 z"
       transform="matrix(-0.32141217,-0.32141217,0.37498088,-0.37498088,-3.76573,1325.7103)" />
    <path
       sodipodi:type="arc"
       style="fill:#0066ff;fill-opacity:0.94117647;stroke:none"
       id="path3761-4-4"
       sodipodi:cx="175.44586"
       sodipodi:cy="941.64978"
       sodipodi:rx="36.299145"
       sodipodi:ry="39.32407"
       d="m 211.74501,941.64978 a 36.299145,39.32407 0 1 1 -72.59829,0 36.299145,39.32407 0 1 1 72.59829,0 z"
       transform="matrix(-0.77919936,-0.77919936,0.71926103,-0.71926103,-497.65574,1908.4325)" />
  </g>
</svg>
